<svg width="21" height="20" viewBox="0 0 21 20" fill="none" xmlns="http://www.w3.org/2000/svg">
<g clip-path="url(#clip0_120_555)">
<path d="M18.7466 3.23712H2.96104C2.66199 3.23712 2.3752 3.34855 2.16375 3.54691C1.95229 3.74526 1.8335 4.01428 1.8335 4.2948V14.8715C1.8335 15.1521 1.95229 15.4211 2.16375 15.6194C2.3752 15.8178 2.66199 15.9292 2.96104 15.9292H18.7466C19.0456 15.9292 19.3324 15.8178 19.5439 15.6194C19.7554 15.4211 19.8741 15.1521 19.8741 14.8715V4.2948C19.8741 4.01428 19.7554 3.74526 19.5439 3.54691C19.3324 3.34855 19.0456 3.23712 18.7466 3.23712V3.23712ZM17.8784 14.8715H3.8969L7.84329 11.0428L7.03146 10.3077L2.96104 14.2581V5.09863L9.9687 11.6403C10.18 11.8373 10.4657 11.9479 10.7636 11.9479C11.0615 11.9479 11.3473 11.8373 11.5585 11.6403L18.7466 4.93469V14.1893L14.5973 10.2971L13.8023 11.0428L17.8784 14.8715ZM3.69958 4.2948H17.8333L10.7636 10.8894L3.69958 4.2948Z" fill="black" fill-opacity="0.26"/>
</g>
<defs>
<clipPath id="clip0_120_555">
<rect width="20.2957" height="19.0381" fill="white" transform="translate(0.705566 0.0643921)"/>
</clipPath>
</defs>
</svg>
