<svg width="21" height="20" viewBox="0 0 21 20" fill="none" xmlns="http://www.w3.org/2000/svg">
<path d="M8.80118 14.0492V7.70236H7.99823C7.42316 7.98992 6.86737 8.3102 6.33398 8.66141V9.48838C6.80967 9.18258 7.56314 8.75065 7.92974 8.56384H7.94496V14.0492H8.80118V14.0492ZM10.3081 12.4964C10.3678 13.2579 11.0616 14.1694 12.4684 14.1694C14.0641 14.1694 15.0053 12.901 15.0053 10.7532C15.0053 8.45199 14.0146 7.57861 12.528 7.57861C11.3534 7.57861 10.2485 8.37822 10.2485 9.73111C10.2485 11.1114 11.2938 11.8372 12.3745 11.8372C13.3208 11.8372 13.9347 11.3898 14.1288 10.8972H14.1631C14.158 12.4631 13.5783 13.4721 12.5077 13.4721C11.6654 13.4721 11.2291 12.9367 11.1758 12.4964H10.3081V12.4964ZM14.054 9.73944C14.054 10.5676 13.3449 11.1435 12.5521 11.1435C11.7897 11.1435 11.1009 10.6878 11.1009 9.71564C11.1009 8.73637 11.8392 8.27589 12.5825 8.27589C13.3855 8.27589 14.054 8.74946 14.054 9.73944Z" fill="black" fill-opacity="0.26"/>
<path d="M5.06567 0.141846C5.23388 0.141846 5.3952 0.204527 5.51414 0.3161C5.63309 0.427673 5.69991 0.578999 5.69991 0.736788V1.33173H15.8478V0.736788C15.8478 0.578999 15.9146 0.427673 16.0335 0.3161C16.1525 0.204527 16.3138 0.141846 16.482 0.141846C16.6502 0.141846 16.8115 0.204527 16.9305 0.3161C17.0494 0.427673 17.1163 0.578999 17.1163 0.736788V1.33173H18.3847C19.0576 1.33173 19.7029 1.58245 20.1786 2.02875C20.6544 2.47504 20.9217 3.08034 20.9217 3.7115V16.8002C20.9217 17.4314 20.6544 18.0367 20.1786 18.483C19.7029 18.9293 19.0576 19.18 18.3847 19.18H3.16294C2.4901 19.18 1.84481 18.9293 1.36904 18.483C0.893263 18.0367 0.625977 17.4314 0.625977 16.8002V3.7115C0.625977 3.08034 0.893263 2.47504 1.36904 2.02875C1.84481 1.58245 2.4901 1.33173 3.16294 1.33173H4.43143V0.736788C4.43143 0.578999 4.49825 0.427673 4.61719 0.3161C4.73613 0.204527 4.89746 0.141846 5.06567 0.141846V0.141846ZM1.89446 4.90138V16.8002C1.89446 17.1158 2.0281 17.4184 2.26599 17.6416C2.50388 17.8647 2.82652 17.9901 3.16294 17.9901H18.3847C18.7212 17.9901 19.0438 17.8647 19.2817 17.6416C19.5196 17.4184 19.6532 17.1158 19.6532 16.8002V4.90138H1.89446Z" fill="black" fill-opacity="0.26"/>
</svg>
