<svg width="19" height="18" viewBox="0 0 19 18" fill="none" xmlns="http://www.w3.org/2000/svg">
<path d="M8.82266 9.11025C8.82266 9.34694 8.9229 9.57392 9.10131 9.74128C9.27973 9.90864 9.52171 10.0027 9.77403 10.0027C10.0263 10.0027 10.2683 9.90864 10.4467 9.74128C10.6252 9.57392 10.7254 9.34694 10.7254 9.11025C10.7254 8.87357 10.6252 8.64658 10.4467 8.47922C10.2683 8.31186 10.0263 8.21784 9.77403 8.21784C9.52171 8.21784 9.27973 8.31186 9.10131 8.47922C8.9229 8.64658 8.82266 8.87357 8.82266 9.11025V9.11025ZM12.7867 9.11025C12.7867 9.34694 12.8869 9.57392 13.0653 9.74128C13.2437 9.90864 13.4857 10.0027 13.738 10.0027C13.9904 10.0027 14.2323 9.90864 14.4107 9.74128C14.5892 9.57392 14.6894 9.34694 14.6894 9.11025C14.6894 8.87357 14.5892 8.64658 14.4107 8.47922C14.2323 8.31186 13.9904 8.21784 13.738 8.21784C13.4857 8.21784 13.2437 8.31186 13.0653 8.47922C12.8869 8.64658 12.7867 8.87357 12.7867 9.11025ZM4.85865 9.11025C4.85865 9.34694 4.95889 9.57392 5.1373 9.74128C5.31572 9.90864 5.5577 10.0027 5.81002 10.0027C6.06233 10.0027 6.30432 9.90864 6.48273 9.74128C6.66115 9.57392 6.76138 9.34694 6.76138 9.11025C6.76138 8.87357 6.66115 8.64658 6.48273 8.47922C6.30432 8.31186 6.06233 8.21784 5.81002 8.21784C5.5577 8.21784 5.31572 8.31186 5.1373 8.47922C4.95889 8.64658 4.85865 8.87357 4.85865 9.11025V9.11025ZM17.9637 5.88269C17.5157 4.88431 16.8736 3.98818 16.055 3.21847C15.2422 2.45322 14.2772 1.84494 13.2148 1.42807C12.1247 0.998593 10.9672 0.781067 9.77403 0.781067H9.73438C8.53329 0.786644 7.36985 1.00975 6.27579 1.44852C5.22246 1.86966 4.26656 2.47903 3.46134 3.24264C2.6507 4.01049 2.01448 4.9029 1.57447 5.89757C1.11861 6.92756 0.888698 8.02263 0.894644 9.1493C0.901369 10.4405 1.22701 11.7126 1.84601 12.8658V15.6918C1.84601 15.9186 1.94206 16.1362 2.11304 16.2965C2.28402 16.4569 2.51592 16.547 2.75773 16.547H5.77236C7.00178 17.1277 8.35794 17.4331 9.73438 17.4394H9.77601C10.9632 17.4394 12.1148 17.2238 13.1989 16.8017C14.256 16.3898 15.2173 15.7886 16.0292 15.0318C16.8478 14.2714 17.492 13.3827 17.9419 12.3917C18.4096 11.3655 18.6475 10.2741 18.6534 9.14744C18.6594 8.01519 18.4255 6.91641 17.9637 5.88269V5.88269ZM14.9689 14.026C13.5795 15.3162 11.7362 16.0265 9.77403 16.0265H9.74033C8.54518 16.0209 7.35796 15.742 6.30948 15.2177L6.14299 15.134H3.35233V12.5163L3.26314 12.3601C2.70421 11.3766 2.40691 10.263 2.40097 9.14186C2.39304 7.28824 3.14818 5.54804 4.5336 4.23731C5.91704 2.92658 7.76625 2.20149 9.74231 2.19405H9.77601C10.767 2.19405 11.7283 2.3744 12.6341 2.73136C13.518 3.07903 14.3108 3.57915 14.9926 4.21872C15.6725 4.85642 16.2076 5.60196 16.5782 6.43116C16.9628 7.2901 17.155 8.20111 17.151 9.14186C17.1392 10.9936 16.3642 12.7282 14.9689 14.026V14.026Z" fill="black" fill-opacity="0.26"/>
</svg>
