<svg width="19" height="20" viewBox="0 0 19 20" fill="none" xmlns="http://www.w3.org/2000/svg">
<path d="M9.4197 8.16921C11.1448 8.16921 12.5249 6.88414 12.5249 5.31349C12.5249 3.74284 11.1448 2.45777 9.4197 2.45777C7.69456 2.45777 6.31445 3.74284 6.31445 5.31349C6.31445 6.88414 7.69456 8.16921 9.4197 8.16921ZM9.4197 10.073C6.5783 10.073 4.28488 7.94075 4.28488 5.31349C4.28488 2.68623 6.5783 0.553955 9.4197 0.553955C12.2611 0.553955 14.5545 2.68623 14.5545 5.31349C14.5545 7.94075 12.2611 10.073 9.4197 10.073ZM2.31619 17.6883H16.5232V16.4222C16.5232 14.7564 14.179 13.0335 9.4197 13.0335C4.66035 13.0335 2.31619 14.7564 2.31619 16.4222V17.6883ZM9.4197 11.1296C16.1782 11.1296 18.5528 14.2995 18.5528 16.4222V19.5921H0.286621V16.4222C0.286621 14.2995 2.66122 11.1296 9.4197 11.1296V11.1296Z" fill="black" fill-opacity="0.26"/>
</svg>
