<svg width="18" height="16" viewBox="0 0 18 16" fill="none" xmlns="http://www.w3.org/2000/svg">
<path d="M15.1161 15.4831H15.0082C2.54539 14.8108 0.775856 4.94666 0.528502 1.93625C0.508571 1.70219 0.538072 1.46674 0.615314 1.24339C0.692556 1.02004 0.816021 0.81318 0.978634 0.634667C1.14125 0.456153 1.33981 0.309493 1.56296 0.203088C1.7861 0.096684 2.02943 0.0326271 2.27901 0.014588H5.77368C6.02773 0.0143573 6.276 0.0856893 6.48633 0.219344C6.69667 0.352999 6.85937 0.542819 6.95337 0.764215L7.91742 2.9893C8.01024 3.20559 8.03327 3.44269 7.98366 3.67115C7.93405 3.89962 7.81397 4.10938 7.63835 4.27437L6.28742 5.5535C6.49844 6.67838 7.07272 7.71532 7.93257 8.52402C8.79242 9.33271 9.89634 9.87414 11.095 10.0751L12.4713 8.79593C12.6498 8.63301 12.8755 8.523 13.1203 8.47962C13.365 8.43624 13.618 8.46142 13.8476 8.552L16.2387 9.45037C16.4711 9.54132 16.6695 9.69514 16.8084 9.89221C16.9473 10.0893 17.0206 10.3207 17.0188 10.557V13.6983C17.0188 14.1716 16.8183 14.6256 16.4615 14.9603C16.1047 15.295 15.6207 15.4831 15.1161 15.4831ZM2.43123 1.20447C2.26302 1.20447 2.10169 1.26715 1.98275 1.37873C1.86381 1.4903 1.79699 1.64163 1.79699 1.79941V1.84701C2.08874 5.36906 3.95975 13.6983 15.078 14.2932C15.1613 14.298 15.2448 14.2874 15.3238 14.2619C15.4027 14.2363 15.4755 14.1965 15.5379 14.1445C15.6004 14.0926 15.6513 14.0295 15.6878 13.9591C15.7242 13.8886 15.7455 13.8121 15.7503 13.7339V10.557L13.3592 9.65859L11.5389 11.3542L11.2345 11.3185C5.7166 10.67 4.96819 5.494 4.96819 5.44046L4.93014 5.15489L6.73138 3.4474L5.78002 1.20447H2.43123Z" fill="black" fill-opacity="0.26"/>
</svg>
