<svg width="5" height="5" viewBox="0 0 5 5" fill="none" xmlns="http://www.w3.org/2000/svg">
<path d="M2.17554 0.218628C1.76786 0.218628 1.36933 0.332029 1.03036 0.544492C0.691379 0.756954 0.427178 1.05894 0.271165 1.41225C0.115151 1.76556 0.0743306 2.15433 0.153866 2.52941C0.233401 2.90448 0.429719 3.24901 0.717995 3.51942C1.00627 3.78984 1.37356 3.97399 1.77341 4.0486C2.17326 4.1232 2.58771 4.08491 2.96436 3.93857C3.34101 3.79222 3.66294 3.54439 3.88944 3.22642C4.11594 2.90845 4.23683 2.53461 4.23683 2.15219C4.23621 1.63955 4.01884 1.14808 3.63241 0.785596C3.24598 0.423109 2.72204 0.219209 2.17554 0.218628V0.218628ZM2.17554 2.89587C2.01874 2.89587 1.86546 2.85225 1.73509 2.77053C1.60471 2.68882 1.5031 2.57267 1.44309 2.43678C1.38308 2.30089 1.36738 2.15136 1.39797 2.0071C1.42857 1.86285 1.50407 1.73033 1.61495 1.62633C1.72582 1.52232 1.86709 1.4515 2.02088 1.4228C2.17466 1.39411 2.33407 1.40883 2.47894 1.46512C2.6238 1.52141 2.74762 1.61673 2.83473 1.73902C2.92185 1.86132 2.96835 2.0051 2.96835 2.15219C2.9681 2.34935 2.8845 2.53838 2.73587 2.6778C2.58725 2.81722 2.38573 2.89564 2.17554 2.89587V2.89587Z" fill="black" fill-opacity="0.26"/>
</svg>
